<svg xmlns="http://www.w3.org/2000/svg" xmlns:xlink="http://www.w3.org/1999/xlink" version="1.1" x="0px" y="0px" viewBox="0 0 64 80" enable-background="new 0 0 64 64" xml:space="preserve"><g display="none"><rect x="-558.49" y="-232.774" display="inline" fill="#000000" width="787" height="375.042"/></g><g display="none"><g display="inline"><polygon fill="#000000" points="60.284,63.979 3.716,63.979 14.322,49.869 49.678,49.869   "/><ellipse opacity="0.2" cx="32" cy="57.026" rx="8" ry="1.781"/><g><path fill="#000000" d="M31.995,57.138l-2.418-3.193c-1.779-2.327-17.351-23.115-17.351-33.471     c0-12.424,7.756-20.453,19.769-20.453S51.764,8.05,51.764,20.474c0,10.341-15.572,31.129-17.336,33.471L31.995,57.138z"/><circle fill="#000000" cx="31.98" cy="20.611" r="6.402"/></g></g></g><g display="none"><polygon display="inline" fill="none" stroke="#000000" stroke-width="2" stroke-miterlimit="10" points="59.357,63 4.643,63    14.902,49.322 49.098,49.322  "/><path display="inline" fill="#000000" stroke="#000000" stroke-width="2" stroke-miterlimit="10" d="M31.995,56.369l-2.339-3.096   c-1.721-2.255-16.782-22.407-16.782-32.446C12.874,8.783,20.375,1,31.995,1s19.121,7.783,19.121,19.827   c0,10.024-15.061,30.176-16.768,32.446L31.995,56.369z"/><ellipse display="inline" fill="none" stroke="#000000" stroke-width="2" stroke-miterlimit="10" cx="31.98" cy="20.96" rx="6.192" ry="6.206"/><polyline display="inline" fill="none" stroke="#000000" stroke-width="2" stroke-miterlimit="10" points="14.902,49.322    32.005,62.557 49.098,49.322  "/></g><g><g><path d="M2.643,64h58.714L49.598,48.322H39.145c5.355-7.742,12.97-20.058,12.97-27.494C52.116,8.175,44.218,0,31.995,0    S11.874,8.175,11.874,20.827c0,7.546,7.892,20.162,12.967,27.494h-10.44L2.643,64z M31.98,15.753c2.863,0,5.192,2.336,5.192,5.207    s-2.329,5.206-5.192,5.206c-2.862,0-5.191-2.335-5.191-5.206S29.118,15.753,31.98,15.753z M15.092,50.734L29.652,62H6.643    L15.092,50.734z M34.357,62l14.55-11.266L57.357,62H34.357z M28.859,53.875l3.135,4.149l3.154-4.151    c0.654-0.87,1.553-2.088,2.595-3.552h8.43L32.005,61.292L17.828,50.322h8.419C27.533,52.124,28.495,53.399,28.859,53.875z"/></g></g><g display="none"><path display="inline" fill="#000000" d="M32,0C14.327,0,0,14.327,0,32c0,17.673,14.327,32,32,32s32-14.327,32-32   C64,14.327,49.673,0,32,0z"/><polygon display="inline" fill="#000000" points="15.504,49.389 5.761,62.378 58.126,62.378 48.739,49.643  "/><polyline display="inline" fill="#000000" stroke="#000000" stroke-width="2" stroke-miterlimit="10" points="14.902,49.322    32.005,62.557 49.098,49.322  "/><polygon display="inline" fill="none" stroke="#000000" stroke-width="2" stroke-miterlimit="10" points="59.357,63 4.643,63    14.902,49.322 49.098,49.322  "/><path display="inline" fill="#000000" stroke="#000000" stroke-width="2" stroke-miterlimit="10" d="M31.995,56.369l-2.339-3.096   c-1.721-2.255-16.782-22.407-16.782-32.446C12.874,8.783,20.375,1,31.995,1s19.121,7.783,19.121,19.827   c0,10.024-15.061,30.176-16.768,32.446L31.995,56.369z"/><ellipse display="inline" fill="#000000" stroke="#000000" stroke-width="2" stroke-miterlimit="10" cx="31.98" cy="20.96" rx="6.192" ry="6.206"/></g><text x="0" y="79" fill="#000000" font-size="5px" font-weight="bold" font-family="'Helvetica Neue', Helvetica, Arial-Unicode, Arial, Sans-serif">Created by AlfredoCreates.com</text><text x="0" y="84" fill="#000000" font-size="5px" font-weight="bold" font-family="'Helvetica Neue', Helvetica, Arial-Unicode, Arial, Sans-serif">from the Noun Project</text></svg>